<?xml version="1.0" encoding="UTF-8" standalone="no"?>
<svg
   viewBox="0 0 1024 1024"
   version="1.1"
   id="svg7"
   sodipodi:docname="chapeaux_icon_default_2026.svg"
   inkscape:version="1.4.3 (0d15f75042, 2025-12-25)"
   xmlns:inkscape="http://www.inkscape.org/namespaces/inkscape"
   xmlns:sodipodi="http://sodipodi.sourceforge.net/DTD/sodipodi-0.dtd"
   xmlns="http://www.w3.org/2000/svg"
   xmlns:svg="http://www.w3.org/2000/svg">
  <sodipodi:namedview
     id="namedview7"
     pagecolor="#ffffff"
     bordercolor="#000000"
     borderopacity="0.25"
     inkscape:showpageshadow="2"
     inkscape:pageopacity="0.0"
     inkscape:pagecheckerboard="0"
     inkscape:deskcolor="#d1d1d1"
     inkscape:zoom="0.44532488"
     inkscape:cx="450.23309"
     inkscape:cy="415.42704"
     inkscape:window-width="1920"
     inkscape:window-height="1095"
     inkscape:window-x="0"
     inkscape:window-y="0"
     inkscape:window-maximized="1"
     inkscape:current-layer="svg7" />
  <defs
     id="defs1">
    <style
       id="style1">.cls-1{fill:#1d4174;}.cls-2{fill:#f7823c;}.cls-3{fill:#0499c5;}.cls-4{fill:#43adaf;}</style>
  </defs>
  <path
     class="cls-1"
     d="M 842.25,604.58 C 794.53,534.09 748.05,477.12 701.16,432 q 25.26,-2 48,-1.85 l -1.06,0.82 c 0.69,0.88 68.72,87.81 97.82,123.27 a 214.4,214.4 0 0 0 20.35,21.28 280.38,280.38 0 0 1 -24.02,29.06 z"
     id="path1"
     style="fill:#5e40be;fill-opacity:1" />
  <path
     class="cls-2"
     d="m 862.52,536.86 c -21.33,-26 -64.54,-80.9 -84.06,-105.78 56.74,3.78 97.54,19.1 115.54,43.14 l 0.19,-0.14 c 3.45,19.84 0.85,40 -7.86,61.06 a 159.15,159.15 0 0 1 -8.72,17.7 178.48,178.48 0 0 1 -15.09,-15.98 z"
     id="path2"
     style="fill:#f5921b;fill-opacity:1" />
  <path
     class="cls-2"
     d="m 905.24,543 a 142.29,142.29 0 0 0 9.65,-34.7 c 20.08,33.8 50.57,85.61 73.7,127 C 975.34,625 960.66,615 945.72,604.72 927.72,592.4 909.47,579.84 893.3,566.64 A 187.17,187.17 0 0 0 905.24,543 Z"
     id="path3"
     style="fill:#f5921b;fill-opacity:1" />
  <path
     class="cls-3"
     d="m 108.45,303.57 c 53.66,-66.89 151,-146.63 310.12,-146.63 129.63,0 230.32,27.36 307.83,83.66 73.7,53.53 118.78,127.24 152.89,193.81 C 836.41,410.55 767.69,403.5 686,412.62 649.5,380.48 612.59,355.62 574.42,337.12 491,296.75 399.26,285.92 277.13,302 c -140,18.42 -214,91.85 -253.22,163.22 18.38,-59.37 47.17,-115.07 84.54,-161.65 z"
     id="path4"
     style="fill:#0066cc;fill-opacity:1" />
  <path
     class="cls-3"
     d="M 62.56,790.72 C 39.34,757.82 1.77,692 1,609.57 c 2.34,-28 12.47,-96.54 56.42,-160.38 49,-71.21 123.83,-113.89 222.39,-126.85 140.68,-18.52 258.17,-5.89 378.71,93.89 -73.59,11.06 -155.88,34.34 -238.31,69.48 -202.57,86.34 -345.94,211 -357.65,305.01 z"
     id="path5"
     style="fill:#0066cc;fill-opacity:1" />
  <path
     class="cls-1"
     d="M 416.58,826.84 C 311.06,861.65 226.21,874 164.41,863.41 113.82,854.77 92.6,833.14 83.93,819.05 62.93,736.18 218.12,595.37 428.7,505.62 520.92,466.31 606.95,443.72 679.81,434.72 728,478.65 777,537 828.32,613.2 736.9,699.68 567.6,777 416.58,826.84 Z"
     id="path6"
     style="fill:#5e40be;fill-opacity:1" />
  <path
     class="cls-4"
     d="M 1006.64,785 C 980.73,828.05 928.45,853.37 863.23,854.49 751.1,856.43 657,790.82 625.46,766 c 99,-46.57 203.82,-109.12 256.51,-182.13 16.35,13.19 34.41,25.59 52.14,37.76 40.52,27.79 78.89,54.18 86.67,83.15 A 111.81,111.81 0 0 1 1006.64,785 Z"
     id="path7"
     style="fill:#37a3a3;fill-opacity:1" />
</svg>
