<svg xmlns="http://www.w3.org/2000/svg" viewBox="0 0 1200 465"><defs><style>.cls-1{fill:#1d4174;}.cls-2{fill:#ffea6c;}.cls-3{fill:#f7823c;}</style></defs><g id="artwork"><polygon class="cls-1" points="1199 1 1 55.42 1 362.48 70.37 359.33 70.37 460.29 172.05 354.71 1199 308.06 1199 1"/><path class="cls-2" d="M134.7,305.92q-22.71,1-35.91-6.64a41.76,41.76,0,0,1-18.63-22.35Q74.73,262.26,74.73,242V170q0-20.73,5.43-35.91a46.88,46.88,0,0,1,18.63-23.92q13.2-8.75,35.91-9.77,22.22-1,34.67,5.7A37.65,37.65,0,0,1,187,125.62q5.19,12.85,5.19,29.87v17.28l-43.19,2v-20a100,100,0,0,0-.62-11.32,16,16,0,0,0-3.57-8.85q-3-3.44-10.12-3.12-6.91.31-10.24,4.17a18.46,18.46,0,0,0-4.2,9.44,76.54,76.54,0,0,0-.86,11.76v94A61.66,61.66,0,0,0,120.51,263a16,16,0,0,0,4.44,8.68q3.33,3.18,9.75,2.89c4.6-.21,7.9-1.55,9.87-4a18.58,18.58,0,0,0,3.7-9.42A89.11,89.11,0,0,0,149,249.5v-21l43.19-2v17.28a88.06,88.06,0,0,1-5.06,30.7,44.64,44.64,0,0,1-17.52,22Q157.16,304.9,134.7,305.92Z"/><path class="cls-2" d="M207.25,299.66V99.78l44.17-2v80.94l30.84-1.4V96.37l44.42-2V294.24l-44.42,2V208.9l-30.84,1.4v87.36Z"/><path class="cls-2" d="M337.54,293.75l37.75-201.6,50.34-2.29L462.9,288.05l-40.72,1.85L415.52,248l-29.37,1.33-6.91,42.51Zm52.56-71,21.22-1L400.71,144.3Z"/><path class="cls-2" d="M471.29,287.67V87.79l67.12-3.05q18-.81,29.61,5.44a38.93,38.93,0,0,1,17.28,19q5.67,12.7,5.67,31.21,0,23.19-7.65,35.75A42.39,42.39,0,0,1,562.59,194a88.68,88.68,0,0,1-29.36,6l-17.77.81v84.89Zm44.17-117.74,14.81-.67q8.13-.37,12.33-3.52a15.15,15.15,0,0,0,5.56-9.14,70.32,70.32,0,0,0,1.35-15.11,71.38,71.38,0,0,0-1.11-13.4,14.47,14.47,0,0,0-5.3-9q-4.2-3.27-13.08-2.86l-14.56.66Z"/><path class="cls-2" d="M600.35,281.81V81.93l89.82-4.08V108L644.52,110v49.6l34.8-1.58v30.6l-34.8,1.58V250l46.15-2.1v29.86Z"/><path class="cls-2" d="M691.16,277.69l37.75-201.6,50.34-2.29L816.52,272l-40.72,1.85L769.14,232l-29.37,1.33-6.91,42.52Zm52.56-71,21.22-1-10.61-77.5Z"/><path class="cls-2" d="M882.65,272q-22.95,1-35.9-5.9a37.81,37.81,0,0,1-18.14-21.14q-5.19-14.21-5.18-35.18V71.8l43.68-2v144.6a76.89,76.89,0,0,0,1,12.3,19.37,19.37,0,0,0,4.32,9.92q3.33,3.8,10.24,3.48,7.15-.33,10.37-4.42a21.14,21.14,0,0,0,4.07-10.3A90.6,90.6,0,0,0,898,213V68.41l43.93-2V204.36q0,21-5.31,35.66a43.72,43.72,0,0,1-18.14,22.78Q905.61,270.91,882.65,272Z"/><path class="cls-2" d="M947.06,266.07,985.8,156.72l-37-90.61,41.7-1.9,22,53.05,17.77-54.85L1067,60.74l-35,105.48,39,94.22-41.46,1.89-24.43-58.61-21.47,60.69Z"/><path class="cls-3" d="M1083.77,259.86V222.35l38-1.72v37.51Zm12.34-51.39-11.6-148,40-1.82-14.56,149.22Z"/></g></svg>