<svg xmlns="http://www.w3.org/2000/svg" viewBox="0 0 1024 1024"><defs><style>.cls-1{fill:#1d4174;}.cls-2{fill:#f7823c;}.cls-3{fill:#0499c5;}.cls-4{fill:#43adaf;}</style></defs><g id="artwork"><path class="cls-1" d="M842.25,604.58C794.53,534.09,748.05,477.12,701.16,432q25.26-2,48-1.85l-1.06.82c.69.88,68.72,87.81,97.82,123.27a214.4,214.4,0,0,0,20.35,21.28A280.38,280.38,0,0,1,842.25,604.58Z"/><path class="cls-2" d="M862.52,536.86c-21.33-26-64.54-80.9-84.06-105.78C835.2,434.86,876,450.18,894,474.22l.19-.14c3.45,19.84.85,40-7.86,61.06a159.15,159.15,0,0,1-8.72,17.7A178.48,178.48,0,0,1,862.52,536.86Z"/><path class="cls-2" d="M905.24,543a142.29,142.29,0,0,0,9.65-34.7c20.08,33.8,50.57,85.61,73.7,127C975.34,625,960.66,615,945.72,604.72c-18-12.32-36.25-24.88-52.42-38.08A187.17,187.17,0,0,0,905.24,543Z"/><path class="cls-3" d="M108.45,303.57c53.66-66.89,151-146.63,310.12-146.63,129.63,0,230.32,27.36,307.83,83.66,73.7,53.53,118.78,127.24,152.89,193.81C836.41,410.55,767.69,403.5,686,412.62c-36.5-32.14-73.41-57-111.58-75.5C491,296.75,399.26,285.92,277.13,302c-140,18.42-214,91.85-253.22,163.22C42.29,405.85,71.08,350.15,108.45,303.57Z"/><path class="cls-3" d="M62.56,790.72C39.34,757.82,1.77,692,1,609.57c2.34-28,12.47-96.54,56.42-160.38,49-71.21,123.83-113.89,222.39-126.85,140.68-18.52,258.17-5.89,378.71,93.89-73.59,11.06-155.88,34.34-238.31,69.48C217.64,572.05,74.27,696.71,62.56,790.72Z"/><path class="cls-1" d="M416.58,826.84C311.06,861.65,226.21,874,164.41,863.41c-50.59-8.64-71.81-30.27-80.48-44.36-21-82.87,134.19-223.68,344.77-313.43,92.22-39.31,178.25-61.9,251.11-70.9C728,478.65,777,537,828.32,613.2,736.9,699.68,567.6,777,416.58,826.84Z"/><path class="cls-4" d="M1006.64,785c-25.91,43.05-78.19,68.37-143.41,69.49C751.1,856.43,657,790.82,625.46,766c99-46.57,203.82-109.12,256.51-182.13,16.35,13.19,34.41,25.59,52.14,37.76,40.52,27.79,78.89,54.18,86.67,83.15A111.81,111.81,0,0,1,1006.64,785Z"/></g></svg>