<?xml version="1.0" encoding="UTF-8" standalone="no"?>
<svg
   viewBox="0 0 1200 465"
   version="1.1"
   id="svg9"
   sodipodi:docname="chapeaux_logotype_aiux_2026.svg"
   inkscape:version="1.4.3 (0d15f75042, 2025-12-25)"
   xmlns:inkscape="http://www.inkscape.org/namespaces/inkscape"
   xmlns:sodipodi="http://sodipodi.sourceforge.net/DTD/sodipodi-0.dtd"
   xmlns="http://www.w3.org/2000/svg"
   xmlns:svg="http://www.w3.org/2000/svg">
  <sodipodi:namedview
     id="namedview9"
     pagecolor="#ffffff"
     bordercolor="#000000"
     borderopacity="0.25"
     inkscape:showpageshadow="2"
     inkscape:pageopacity="0.0"
     inkscape:pagecheckerboard="0"
     inkscape:deskcolor="#d1d1d1"
     inkscape:zoom="0.77096064"
     inkscape:cx="570.06801"
     inkscape:cy="167.32372"
     inkscape:window-width="1920"
     inkscape:window-height="1095"
     inkscape:window-x="0"
     inkscape:window-y="0"
     inkscape:window-maximized="1"
     inkscape:current-layer="svg9" />
  <defs
     id="defs1">
    <style
       id="style1">.cls-1{fill:#1d4174;}.cls-2{fill:#ffea6c;}.cls-3{fill:#f7823c;}</style>
  </defs>
  <polygon
     class="cls-1"
     points="1,362.48 70.37,359.33 70.37,460.29 172.05,354.71 1199,308.06 1199,1 1,55.42 "
     id="polygon1"
     style="fill:#5e40be;fill-opacity:1" />
  <path
     class="cls-2"
     d="m 134.7,305.92 q -22.71,1 -35.91,-6.64 A 41.76,41.76 0 0 1 80.16,276.93 Q 74.73,262.26 74.73,242 v -72 q 0,-20.73 5.43,-35.91 a 46.88,46.88 0 0 1 18.63,-23.92 q 13.2,-8.75 35.91,-9.77 22.22,-1 34.67,5.7 A 37.65,37.65 0 0 1 187,125.62 q 5.19,12.85 5.19,29.87 v 17.28 l -43.19,2 v -20 a 100,100 0 0 0 -0.62,-11.32 16,16 0 0 0 -3.57,-8.85 q -3,-3.44 -10.12,-3.12 -6.91,0.31 -10.24,4.17 a 18.46,18.46 0 0 0 -4.2,9.44 76.54,76.54 0 0 0 -0.86,11.76 v 94 a 61.66,61.66 0 0 0 1.12,12.15 16,16 0 0 0 4.44,8.68 q 3.33,3.18 9.75,2.89 c 4.6,-0.21 7.9,-1.55 9.87,-4 a 18.58,18.58 0 0 0 3.7,-9.42 89.11,89.11 0 0 0 0.73,-11.65 v -21 l 43.19,-2 v 17.28 a 88.06,88.06 0 0 1 -5.06,30.7 44.64,44.64 0 0 1 -17.52,22 q -12.45,8.42 -34.91,9.44 z"
     id="path1"
     style="fill:#ffcc17;fill-opacity:1" />
  <path
     class="cls-2"
     d="M 207.25,299.66 V 99.78 l 44.17,-2 v 80.94 l 30.84,-1.4 V 96.37 l 44.42,-2 v 199.87 l -44.42,2 V 208.9 l -30.84,1.4 v 87.36 z"
     id="path2"
     style="fill:#ffcc17;fill-opacity:1" />
  <path
     class="cls-2"
     d="m 337.54,293.75 37.75,-201.6 50.34,-2.29 37.27,198.19 -40.72,1.85 -6.66,-41.9 -29.37,1.33 -6.91,42.51 z m 52.56,-71 21.22,-1 -10.61,-77.45 z"
     id="path3"
     style="fill:#37a3a3;fill-opacity:1" />
  <path
     class="cls-2"
     d="M 471.29,287.67 V 87.79 l 67.12,-3.05 q 18,-0.81 29.61,5.44 a 38.93,38.93 0 0 1 17.28,19 q 5.67,12.7 5.67,31.21 0,23.19 -7.65,35.75 a 42.39,42.39 0 0 1 -20.73,17.86 88.68,88.68 0 0 1 -29.36,6 l -17.77,0.81 v 84.89 z m 44.17,-117.74 14.81,-0.67 q 8.13,-0.37 12.33,-3.52 a 15.15,15.15 0 0 0 5.56,-9.14 70.32,70.32 0 0 0 1.35,-15.11 71.38,71.38 0 0 0 -1.11,-13.4 14.47,14.47 0 0 0 -5.3,-9 q -4.2,-3.27 -13.08,-2.86 l -14.56,0.66 z"
     id="path4"
     style="fill:#ffcc17;fill-opacity:1" />
  <path
     class="cls-2"
     d="M 600.35,281.81 V 81.93 l 89.82,-4.08 V 108 l -45.65,2 v 49.6 l 34.8,-1.58 v 30.6 l -34.8,1.58 V 250 l 46.15,-2.1 v 29.86 z"
     id="path5"
     style="fill:#ffcc17;fill-opacity:1" />
  <path
     class="cls-2"
     d="m 691.16,277.69 37.75,-201.6 50.34,-2.29 37.27,198.2 -40.72,1.85 -6.66,-41.85 -29.37,1.33 -6.91,42.52 z m 52.56,-71 21.22,-1 -10.61,-77.5 z"
     id="path6"
     style="fill:#ffcc17;fill-opacity:1" />
  <path
     class="cls-2"
     d="m 882.65,272 q -22.95,1 -35.9,-5.9 a 37.81,37.81 0 0 1 -18.14,-21.14 q -5.19,-14.21 -5.18,-35.18 V 71.8 l 43.68,-2 v 144.6 a 76.89,76.89 0 0 0 1,12.3 19.37,19.37 0 0 0 4.32,9.92 q 3.33,3.8 10.24,3.48 7.15,-0.33 10.37,-4.42 a 21.14,21.14 0 0 0 4.07,-10.3 A 90.6,90.6 0 0 0 898,213 V 68.41 l 43.93,-2 v 137.95 q 0,21 -5.31,35.66 a 43.72,43.72 0 0 1 -18.14,22.78 q -12.87,8.11 -35.83,9.2 z"
     id="path7"
     style="fill:#f5921b;fill-opacity:1" />
  <path
     class="cls-2"
     d="m 947.06,266.07 38.74,-109.35 -37,-90.61 41.7,-1.9 22,53.05 17.77,-54.85 36.73,-1.67 -35,105.48 39,94.22 -41.46,1.89 -24.43,-58.61 -21.47,60.69 z"
     id="path8"
     style="fill:#f5921b;fill-opacity:1" />
  <path
     class="cls-3"
     d="m 1083.77,259.86 v -37.51 l 38,-1.72 v 37.51 z m 12.34,-51.39 -11.6,-148 40,-1.82 -14.56,149.22 z"
     id="path9"
     style="fill:#f5921b;fill-opacity:1" />
  <path
     style="fill:#37a3a3;fill-opacity:1"
     d="M 471.31371,87.775326 V 287.61624 l 44.11292,-1.91469 V 85.785552 Z"
     id="path10" />
</svg>
