<?xml version="1.0" encoding="UTF-8" standalone="no"?>
<svg
   viewBox="0 0 2000 446.686"
   version="1.1"
   id="svg15"
   sodipodi:docname="chapeaux_logo_wide_default_reverse_2026.svg"
   inkscape:version="1.4.3 (0d15f75042, 2025-12-25)"
   width="2000"
   height="446.686"
   xmlns:inkscape="http://www.inkscape.org/namespaces/inkscape"
   xmlns:sodipodi="http://sodipodi.sourceforge.net/DTD/sodipodi-0.dtd"
   xmlns="http://www.w3.org/2000/svg"
   xmlns:svg="http://www.w3.org/2000/svg">
  <sodipodi:namedview
     id="namedview15"
     pagecolor="#ffffff"
     bordercolor="#000000"
     borderopacity="0.25"
     inkscape:showpageshadow="2"
     inkscape:pageopacity="0.0"
     inkscape:pagecheckerboard="0"
     inkscape:deskcolor="#d1d1d1"
     inkscape:zoom="0.33401357"
     inkscape:cx="896.67015"
     inkscape:cy="901.16099"
     inkscape:window-width="1920"
     inkscape:window-height="1095"
     inkscape:window-x="0"
     inkscape:window-y="0"
     inkscape:window-maximized="1"
     inkscape:current-layer="svg15" />
  <defs
     id="defs1">
    <style
       id="style1">.cls-1{fill:#1d4174;}.cls-2{fill:#f7823c;}.cls-3{fill:#0499c5;}.cls-4{fill:#43adaf;}.cls-5{fill:#fff;}</style>
  </defs>
  <path
     class="cls-1"
     d="m 529.18,281.59 c -30,-44.34 -59.25,-80.18 -88.75,-108.54 10.59,-0.85 20.68,-1.23 30.2,-1.16 l -0.66,0.52 c 0.43,0.55 43.22,55.23 61.53,77.54 a 134.66,134.66 0 0 0 12.8,13.38 175,175 0 0 1 -15.12,18.26 z"
     id="path1"
     style="fill:#5e40be;fill-opacity:1" />
  <path
     class="cls-2"
     d="m 541.93,239 c -13.41,-16.35 -40.59,-50.89 -52.87,-66.54 35.69,2.38 61.32,12 72.65,27.14 l 0.11,-0.09 c 2.17,12.48 0.54,25.18 -4.94,38.41 A 102.22,102.22 0 0 1 551.4,249 113.29,113.29 0 0 1 541.93,239 Z"
     id="path2"
     style="fill:#f5921b;fill-opacity:1" />
  <path
     class="cls-2"
     d="M 568.81,242.85 A 89.86,89.86 0 0 0 574.88,221 c 12.63,21.26 31.81,53.85 46.36,79.88 -8.33,-6.45 -17.57,-12.79 -27,-19.24 -11.29,-7.74 -22.8,-15.65 -33,-23.95 a 117.15,117.15 0 0 0 7.57,-14.84 z"
     id="path3"
     style="fill:#f5921b;fill-opacity:1" />
  <path
     class="cls-3"
     d="M 67.59,92.24 C 101.35,50.16 162.59,0 262.67,0 c 81.54,0 144.88,17.22 193.64,52.63 46.36,33.67 74.72,80 96.18,121.92 -27,-15 -70.21,-19.45 -121.59,-13.71 -23,-20.22 -46.17,-35.89 -70.18,-47.5 -52.51,-25.39 -110.2,-32.21 -187,-22.1 -88,11.58 -134.64,57.78 -159.29,102.67 11.54,-37.33 29.65,-72.37 53.16,-101.67 z"
     id="path4"
     style="fill:#0066cc;fill-opacity:1" />
  <path
     class="cls-3"
     d="M 38.72,398.68 C 24.11,377.98 0.48,336.56 0,284.73 1.47,267.12 7.84,224 35.49,183.84 c 30.83,-44.79 77.9,-71.64 139.89,-79.8 88.49,-11.64 162.43,-3.7 238.23,59.06 -46.29,7 -98.06,21.61 -149.91,43.71 C 136.27,261.13 46.09,339.54 38.72,398.68 Z"
     id="path5"
     style="fill:#0066cc;fill-opacity:1" />
  <path
     class="cls-1"
     d="m 261.42,421.4 c -66.38,21.9 -119.76,29.6 -158.61,23 -31.83,-5.43 -45.18,-19 -50.63,-27.9 -13.23,-52.13 84.42,-140.7 216.88,-197.16 58,-24.73 112.13,-38.94 158,-44.6 30.33,27.64 61.13,64.32 93.42,112.27 -57.57,54.4 -164.06,103.05 -259.06,134.39 z"
     id="path6"
     style="fill:#5e40be;fill-opacity:1" />
  <path
     class="cls-4"
     d="m 632.6,395.09 c -16.31,27.08 -49.19,43 -90.22,43.72 -70.57,1.19 -129.75,-40.07 -149.57,-55.67 62.25,-29.29 128.22,-68.64 161.36,-114.57 10.29,8.3 21.64,16.1 32.8,23.75 25.49,17.49 49.62,34.09 54.52,52.31 a 70.33,70.33 0 0 1 -8.89,50.46 z"
     id="path7"
     style="fill:#37a3a3;fill-opacity:1" />
  <path
     class="cls-5"
     d="m 874.11002,346.938 q -27.3,0 -43.18,-9.94 a 53.51,53.51 0 0 1 -22.4,-27.89 q -6.53,-17.95 -6.53,-42.29 v -86.65 q 0,-24.93 6.53,-42.89 a 52.86,52.86 0 0 1 22.4,-27.74 q 15.89,-9.790006 43.18,-9.790006 26.72,0 41.7,8.750006 a 48.37,48.37 0 0 1 21.19,24.48 q 6.24,15.73 6.24,36.21 v 20.77 h -51.92 v -24 a 122.09,122.09 0 0 0 -0.74,-13.65 20.13,20.13 0 0 0 -4.3,-10.83 q -3.56,-4.31 -12.17,-4.3 -8.31,0 -12.31,4.45 a 21.05,21.05 0 0 0 -5,11.13 92,92 0 0 0 -1,14.09 v 113.03 a 75,75 0 0 0 1.34,14.69 20.3,20.3 0 0 0 5.34,10.68 q 4,4 11.72,4 8.31,0 11.87,-4.31 a 21.25,21.25 0 0 0 4.45,-11.13 106.35,106.35 0 0 0 0.89,-13.94 v -25.21 h 51.94 v 20.78 q 0,20.47 -6.09,36.65 a 50.26,50.26 0 0 1 -21.07,25.52 q -15.07,9.33 -42.08,9.33 z"
     id="path8"
     style="fill:#ffffff;fill-opacity:1" />
  <path
     class="cls-5"
     d="M 961.36002,343.378 V 103.00799 H 1014.47 V 200.348 h 37.1 V 103.00799 H 1105 V 343.378 h -53.43 v -105.05 h -37.1 v 105.05 z"
     id="path9"
     style="fill:#ffffff;fill-opacity:1" />
  <path
     class="cls-5"
     d="m 1118,343.378 45.4,-240.37001 h 60.6 l 44.81,240.37001 h -49 l -8,-50.74 h -35.31 l -8.31,50.74 z m 63.21,-82.5 h 25.52 L 1194,167.108 Z"
     id="path10"
     style="fill:#ffffff;fill-opacity:1" />
  <path
     class="cls-5"
     d="M 1278.88,343.378 V 103.00799 h 80.72 q 21.66,0 35.61,8.16001 a 49.8,49.8 0 0 1 20.79,23.74 q 6.82,15.59 6.83,37.84 0,27.9 -9.2,42.58 a 47.78,47.78 0 0 1 -24.95,20.33 q -15.73,5.64 -35.31,5.64 H 1332 v 102.08 z M 1332,204.198 h 17.81 q 9.8,0 14.83,-3.56 5.03,-3.56 6.68,-10.68 a 83,83 0 0 0 1.68,-18.1 87,87 0 0 0 -1.38,-16.2 18.4,18.4 0 0 0 -6.38,-11.12 q -5.06,-4.15 -15.73,-4.16 H 1332 Z"
     id="path11"
     style="fill:#ffffff;fill-opacity:1" />
  <path
     class="cls-5"
     d="M 1434.09,343.378 V 103.00799 h 108 V 139.208 h -54.9 v 59.65 h 41.84 v 36.8 h -41.82 v 71.82 h 55.49 v 35.9 z"
     id="path12"
     style="fill:#ffffff;fill-opacity:1" />
  <path
     class="cls-5"
     d="m 1543.29,343.378 45.41,-240.37001 h 60.53 L 1694,343.378 h -49 l -8,-50.74 h -35.25 l -8.31,50.74 z m 63.21,-82.5 h 25.5 l -12.76,-93.77 z"
     id="path13"
     style="fill:#ffffff;fill-opacity:1" />
  <path
     class="cls-5"
     d="m 1773.58,346.938 q -27.6,0 -43.18,-9 a 48.42,48.42 0 0 1 -21.81,-26.41 q -6.24,-17.36 -6.24,-42.58 V 103.00799 h 52.53 V 276.908 a 92.8,92.8 0 0 0 1.19,14.84 24.31,24.31 0 0 0 5.19,12.16 q 4,4.75 12.32,4.75 8.59,0 12.46,-4.75 a 24.26,24.26 0 0 0 4.9,-12.16 107.29,107.29 0 0 0 1,-14.84 V 103.00799 h 52.83 V 268.898 q 0,25.21 -6.38,42.58 a 49.36,49.36 0 0 1 -21.81,26.41 q -15.4,9.06 -43,9.05 z"
     id="path14"
     style="fill:#ffffff;fill-opacity:1" />
  <path
     class="cls-5"
     d="m 1851,343.378 46.59,-129.38 -44.51,-111.00001 h 50.15 l 26.41,65.00001 21.37,-65.00001 h 44.21 L 1953.08,227.928 2000,343.378 h -49.86 l -29.37,-71.81 -25.77,71.81 z"
     id="path15"
     style="fill:#ffffff;fill-opacity:1" />
</svg>
