<?xml version="1.0" encoding="UTF-8" standalone="no"?>
<svg
   viewBox="0 0 1200 780"
   version="1.1"
   id="svg15"
   sodipodi:docname="chapeaux_logo_aiux_2026.svg"
   inkscape:version="1.4.3 (0d15f75042, 2025-12-25)"
   xmlns:inkscape="http://www.inkscape.org/namespaces/inkscape"
   xmlns:sodipodi="http://sodipodi.sourceforge.net/DTD/sodipodi-0.dtd"
   xmlns="http://www.w3.org/2000/svg"
   xmlns:svg="http://www.w3.org/2000/svg">
  <sodipodi:namedview
     id="namedview15"
     pagecolor="#ffffff"
     bordercolor="#000000"
     borderopacity="0.25"
     inkscape:showpageshadow="2"
     inkscape:pageopacity="0.0"
     inkscape:pagecheckerboard="0"
     inkscape:deskcolor="#d1d1d1"
     inkscape:zoom="0.33413096"
     inkscape:cx="1099.8681"
     inkscape:cy="882.88735"
     inkscape:window-width="1920"
     inkscape:window-height="1095"
     inkscape:window-x="0"
     inkscape:window-y="0"
     inkscape:window-maximized="1"
     inkscape:current-layer="svg15" />
  <defs
     id="defs1">
    <style
       id="style1">.cls-1{fill:#1d4174;}.cls-2{fill:#f7823c;}.cls-3{fill:#0499c5;}.cls-4{fill:#43adaf;}</style>
  </defs>
  <path
     class="cls-1"
     d="m 800.37,282.59 c -30,-44.34 -59.25,-80.18 -88.75,-108.54 10.59,-0.85 20.68,-1.23 30.2,-1.16 l -0.66,0.52 c 0.43,0.55 43.22,55.23 61.53,77.54 a 134.66,134.66 0 0 0 12.8,13.38 175,175 0 0 1 -15.12,18.26 z"
     id="path1"
     style="fill:#5e40be;fill-opacity:1" />
  <path
     class="cls-2"
     d="m 813.12,240 c -13.41,-16.35 -40.59,-50.89 -52.87,-66.54 35.69,2.38 61.32,12 72.65,27.14 l 0.11,-0.09 c 2.17,12.48 0.54,25.18 -4.94,38.41 a 102.22,102.22 0 0 1 -5.48,11.08 113.29,113.29 0 0 1 -9.47,-10 z"
     id="path2"
     style="fill:#f5921b;fill-opacity:1" />
  <path
     class="cls-2"
     d="M 840,243.85 A 89.86,89.86 0 0 0 846.07,222 c 12.63,21.26 31.81,53.85 46.36,79.88 -8.33,-6.45 -17.57,-12.79 -27,-19.24 -11.29,-7.74 -22.8,-15.65 -33,-23.95 A 117.15,117.15 0 0 0 840,243.85 Z"
     id="path3"
     style="fill:#f5921b;fill-opacity:1" />
  <path
     class="cls-3"
     d="M 338.78,93.24 C 372.54,51.16 433.78,1 533.86,1 615.4,1 678.74,18.22 727.5,53.63 c 46.36,33.67 74.72,80 96.18,121.92 -27,-15 -70.21,-19.45 -121.59,-13.71 -23,-20.22 -46.17,-35.89 -70.18,-47.5 -52.51,-25.39 -110.2,-32.21 -187,-22.1 -88,11.58 -134.64,57.78 -159.29,102.67 11.54,-37.33 29.65,-72.37 53.16,-101.67 z"
     id="path4"
     style="fill:#0066cc;fill-opacity:1" />
  <path
     class="cls-3"
     d="m 309.91,399.68 c -14.61,-20.7 -38.24,-62.12 -38.72,-113.95 1.47,-17.61 7.84,-60.73 35.49,-100.89 30.83,-44.79 77.9,-71.64 139.89,-79.8 88.49,-11.64 162.43,-3.7 238.23,59.06 -46.29,7 -98.06,21.61 -149.91,43.71 -127.43,54.32 -217.61,132.73 -224.98,191.87 z"
     id="path5"
     style="fill:#0066cc;fill-opacity:1" />
  <path
     class="cls-1"
     d="m 532.61,422.4 c -66.38,21.9 -119.76,29.6 -158.61,23 -31.83,-5.43 -45.18,-19 -50.63,-27.9 -13.23,-52.13 84.42,-140.7 216.88,-197.16 58,-24.73 112.13,-38.94 158,-44.6 30.33,27.64 61.13,64.32 93.42,112.27 -57.57,54.4 -164.06,103.05 -259.06,134.39 z"
     id="path6"
     style="fill:#5e40be;fill-opacity:1" />
  <path
     class="cls-4"
     d="m 903.79,396.09 c -16.31,27.08 -49.19,43 -90.22,43.72 C 743,441 683.82,399.74 664,384.14 726.25,354.85 792.22,315.5 825.36,269.57 c 10.29,8.3 21.64,16.1 32.8,23.75 25.49,17.49 49.62,34.09 54.52,52.31 a 70.33,70.33 0 0 1 -8.89,50.46 z"
     id="path7"
     style="fill:#37a3a3;fill-opacity:1" />
  <path
     class="cls-1"
     d="m 73.11,775.28 q -27.3,0 -43.18,-9.94 A 53.51,53.51 0 0 1 7.53,737.45 Q 1,719.5 1,695.16 v -86.65 q 0,-24.93 6.53,-42.89 a 52.86,52.86 0 0 1 22.4,-27.74 q 15.89,-9.79 43.18,-9.79 26.72,0 41.7,8.75 A 48.37,48.37 0 0 1 136,561.32 q 6.24,15.73 6.24,36.21 V 618.3 H 90.32 v -24 a 122.09,122.09 0 0 0 -0.74,-13.65 20.13,20.13 0 0 0 -4.3,-10.83 q -3.56,-4.31 -12.17,-4.3 -8.31,0 -12.31,4.45 a 21.05,21.05 0 0 0 -5,11.13 92,92 0 0 0 -1,14.09 v 113.03 a 75,75 0 0 0 1.34,14.69 20.3,20.3 0 0 0 5.34,10.68 q 4,4 11.72,4 8.31,0 11.87,-4.31 a 21.25,21.25 0 0 0 4.45,-11.13 106.35,106.35 0 0 0 0.89,-13.94 V 683 h 51.94 v 20.78 q 0,20.47 -6.09,36.65 a 50.26,50.26 0 0 1 -21.07,25.52 q -15.07,9.33 -42.08,9.33 z"
     id="path8"
     style="fill:#5e40be;fill-opacity:1" />
  <path
     class="cls-1"
     d="M 160.36,771.72 V 531.35 h 53.11 v 97.34 h 37.1 V 531.35 H 304 V 771.72 H 250.57 V 666.67 h -37.1 v 105.05 z"
     id="path9"
     style="fill:#5e40be;fill-opacity:1" />
  <path
     class="cls-1"
     d="M 317,771.72 362.4,531.35 H 423 l 44.81,240.37 h -49 l -8,-50.74 H 375.5 l -8.31,50.74 z m 63.21,-82.5 h 25.52 L 393,595.45 Z"
     id="path10"
     style="fill:#37a3a3;fill-opacity:1" />
  <path
     class="cls-1"
     d="M 477.88,771.72 V 531.35 h 80.72 q 21.66,0 35.61,8.16 A 49.8,49.8 0 0 1 615,563.25 q 6.82,15.59 6.83,37.84 0,27.9 -9.2,42.58 A 47.78,47.78 0 0 1 587.68,664 q -15.73,5.64 -35.31,5.64 H 531 V 771.72 Z M 531,632.54 h 17.81 q 9.8,0 14.83,-3.56 5.03,-3.56 6.68,-10.68 A 83,83 0 0 0 572,600.2 87,87 0 0 0 570.62,584 18.4,18.4 0 0 0 564.24,572.88 q -5.06,-4.15 -15.73,-4.16 H 531 Z"
     id="path11"
     style="fill:#5e40be;fill-opacity:1" />
  <path
     class="cls-1"
     d="M 633.09,771.72 V 531.35 h 108 v 36.2 h -54.9 v 59.65 h 41.84 V 664 h -41.82 v 71.82 h 55.49 v 35.9 z"
     id="path12"
     style="fill:#5e40be;fill-opacity:1" />
  <path
     class="cls-1"
     d="M 742.29,771.72 787.7,531.35 h 60.53 L 893,771.72 h -49 l -8,-50.74 h -35.25 l -8.31,50.74 z m 63.21,-82.5 H 831 l -12.76,-93.77 z"
     id="path13"
     style="fill:#5e40be;fill-opacity:1" />
  <path
     class="cls-1"
     d="m 972.58,775.28 q -27.6,0 -43.18,-9 a 48.42,48.42 0 0 1 -21.81,-26.41 q -6.24,-17.36 -6.24,-42.58 V 531.35 h 52.53 v 173.9 a 92.8,92.8 0 0 0 1.19,14.84 24.31,24.31 0 0 0 5.19,12.16 q 4,4.75 12.32,4.75 8.59,0 12.46,-4.75 a 24.26,24.26 0 0 0 4.9,-12.16 107.29,107.29 0 0 0 1,-14.84 v -173.9 h 52.83 v 165.89 q 0,25.21 -6.38,42.58 a 49.36,49.36 0 0 1 -21.81,26.41 q -15.4,9.06 -43,9.05 z"
     id="path14"
     style="fill:#f5921b;fill-opacity:1" />
  <path
     class="cls-1"
     d="m 1050,771.72 46.59,-129.38 -44.51,-111 h 50.15 l 26.41,65 21.37,-65 h 44.21 l -42.14,124.93 46.92,115.45 h -49.86 l -29.37,-71.81 -25.77,71.81 z"
     id="path15"
     style="fill:#f5921b;fill-opacity:1" />
  <rect
     style="fill:#37a3a3;fill-opacity:1"
     id="rect1"
     width="54.394207"
     height="240.60513"
     x="477.63687"
     y="531.237" />
</svg>
