<svg xmlns="http://www.w3.org/2000/svg" viewBox="0 0 1200 780"><defs><style>.cls-1{fill:#1d4174;}.cls-2{fill:#f7823c;}.cls-3{fill:#0499c5;}.cls-4{fill:#43adaf;}.cls-5{fill:#fff;}</style></defs><g id="artwork"><path class="cls-1" d="M800.37,282.59c-30-44.34-59.25-80.18-88.75-108.54,10.59-.85,20.68-1.23,30.2-1.16l-.66.52c.43.55,43.22,55.23,61.53,77.54a134.66,134.66,0,0,0,12.8,13.38A175,175,0,0,1,800.37,282.59Z"/><path class="cls-2" d="M813.12,240c-13.41-16.35-40.59-50.89-52.87-66.54,35.69,2.38,61.32,12,72.65,27.14l.11-.09c2.17,12.48.54,25.18-4.94,38.41A102.22,102.22,0,0,1,822.59,250,113.29,113.29,0,0,1,813.12,240Z"/><path class="cls-2" d="M840,243.85A89.86,89.86,0,0,0,846.07,222c12.63,21.26,31.81,53.85,46.36,79.88-8.33-6.45-17.57-12.79-27-19.24-11.29-7.74-22.8-15.65-33-23.95A117.15,117.15,0,0,0,840,243.85Z"/><path class="cls-3" d="M338.78,93.24C372.54,51.16,433.78,1,533.86,1,615.4,1,678.74,18.22,727.5,53.63c46.36,33.67,74.72,80,96.18,121.92-27-15-70.21-19.45-121.59-13.71-23-20.22-46.17-35.89-70.18-47.5-52.51-25.39-110.2-32.21-187-22.1-88,11.58-134.64,57.78-159.29,102.67C297.16,157.58,315.27,122.54,338.78,93.24Z"/><path class="cls-3" d="M309.91,399.68c-14.61-20.7-38.24-62.12-38.72-113.95,1.47-17.61,7.84-60.73,35.49-100.89,30.83-44.79,77.9-71.64,139.89-79.8C535.06,93.4,609,101.34,684.8,164.1c-46.29,7-98.06,21.61-149.91,43.71C407.46,262.13,317.28,340.54,309.91,399.68Z"/><path class="cls-1" d="M532.61,422.4C466.23,444.3,412.85,452,374,445.4c-31.83-5.43-45.18-19-50.63-27.9-13.23-52.13,84.42-140.7,216.88-197.16,58-24.73,112.13-38.94,158-44.6,30.33,27.64,61.13,64.32,93.42,112.27C734.1,342.41,627.61,391.06,532.61,422.4Z"/><path class="cls-4" d="M903.79,396.09c-16.31,27.08-49.19,43-90.22,43.72C743,441,683.82,399.74,664,384.14c62.25-29.29,128.22-68.64,161.36-114.57,10.29,8.3,21.64,16.1,32.8,23.75,25.49,17.49,49.62,34.09,54.52,52.31A70.33,70.33,0,0,1,903.79,396.09Z"/><path class="cls-5" d="M73.11,775.28q-27.3,0-43.18-9.94a53.51,53.51,0,0,1-22.4-27.89Q1,719.5,1,695.16V608.51q0-24.93,6.53-42.89a52.86,52.86,0,0,1,22.4-27.74q15.89-9.79,43.18-9.79,26.72,0,41.7,8.75A48.37,48.37,0,0,1,136,561.32q6.24,15.73,6.24,36.21V618.3H90.32v-24a122.09,122.09,0,0,0-.74-13.65,20.13,20.13,0,0,0-4.3-10.83q-3.56-4.31-12.17-4.3-8.31,0-12.31,4.45a21.05,21.05,0,0,0-5,11.13,92,92,0,0,0-1,14.09V708.22a75,75,0,0,0,1.34,14.69,20.3,20.3,0,0,0,5.34,10.68q4,4,11.72,4,8.31,0,11.87-4.31a21.25,21.25,0,0,0,4.45-11.13,106.35,106.35,0,0,0,.89-13.94V683h51.94v20.78q0,20.47-6.09,36.65a50.26,50.26,0,0,1-21.07,25.52Q100.12,775.28,73.11,775.28Z"/><path class="cls-5" d="M160.36,771.72V531.35h53.11v97.34h37.1V531.35H304V771.72H250.57V666.67h-37.1V771.72Z"/><path class="cls-5" d="M317,771.72l45.4-240.37H423l44.81,240.37h-49l-8-50.74H375.5l-8.31,50.74Zm63.21-82.5h25.52L393,595.45Z"/><path class="cls-5" d="M477.88,771.72V531.35H558.6q21.66,0,35.61,8.16A49.8,49.8,0,0,1,615,563.25q6.82,15.59,6.83,37.84,0,27.9-9.2,42.58A47.78,47.78,0,0,1,587.68,664q-15.73,5.64-35.31,5.64H531V771.72ZM531,632.54h17.81q9.8,0,14.83-3.56t6.68-10.68A83,83,0,0,0,572,600.2,87,87,0,0,0,570.62,584a18.4,18.4,0,0,0-6.38-11.12q-5.06-4.15-15.73-4.16H531Z"/><path class="cls-5" d="M633.09,771.72V531.35h108v36.2h-54.9V627.2h41.84V664H686.21v71.82H741.7v35.9Z"/><path class="cls-5" d="M742.29,771.72,787.7,531.35h60.53L893,771.72h-49l-8-50.74H800.75l-8.31,50.74Zm63.21-82.5H831l-12.76-93.77Z"/><path class="cls-5" d="M972.58,775.28q-27.6,0-43.18-9a48.42,48.42,0,0,1-21.81-26.41q-6.24-17.36-6.24-42.58V531.35h52.53v173.9a92.8,92.8,0,0,0,1.19,14.84,24.31,24.31,0,0,0,5.19,12.16q4,4.75,12.32,4.75,8.59,0,12.46-4.75a24.26,24.26,0,0,0,4.9-12.16,107.29,107.29,0,0,0,1-14.84V531.35h52.83V697.24q0,25.21-6.38,42.58a49.36,49.36,0,0,1-21.81,26.41Q1000.18,775.29,972.58,775.28Z"/><path class="cls-5" d="M1050,771.72l46.59-129.38-44.51-111h50.15l26.41,65,21.37-65h44.21l-42.14,124.93L1199,771.72h-49.86l-29.37-71.81L1094,771.72Z"/></g></svg>